<?xml version="1.0" encoding="utf-8"?>
<!-- Designed by Vexels.com - 2020 All Rights Reserved - https://vexels.com/terms-and-conditions/  -->
<svg version="1.1" id="Capa_1" xmlns="http://www.w3.org/2000/svg" xmlns:xlink="http://www.w3.org/1999/xlink" x="0px" y="0px"
	 viewBox="0 0 1200 1200" enable-background="new 0 0 1200 1200" xml:space="preserve">
<path fill="#06AA51" d="M969.523,243.849c-1.069-45.599-0.767-94.193-9.793-138.978c-2.228-11.054-5.436-22.12-11.632-31.543
	c-7.606-11.569-19.646-18.216-32.808-21.546c-9.608-2.456-20.023-2.341-29.5,0.144c-1.182,0.313-2.358,0.649-3.525,1.008
	c0,0-1.557,0.487-1.569,0.491c-100.551,31.464-204.597,46.55-302.528,86.723c-52.418,21.503-103.524,48.093-150.79,81.706
	C330.763,290.56,258.237,391.25,237.083,509.062c-10.225,57.99-8.747,116.901,1.579,173.192
	c10.374,56.39,28.244,110.474,53.233,161.676l0.078,0.158c-5.828,15.836-10.107,32.272-13.729,48.819
	c-9.292,42.45-15.038,85.993-15.089,129.495c-0.418,43.333,4.669,86.687,16.448,127.6c9.85-66.241,28.306-130.896,50.576-193.954
	c21.602-61.167,44.662-123.799,72.543-182.359c15.217-31.965,36.111-60.178,56.615-88.843c20.29-28.366,40.932-56.478,61.21-84.853
	c15.614-22.057,30.998-44.737,44.969-68.857c7.032-11.999,13.617-24.449,19.501-37.341c5.814-12.894,11.058-26.306,13.962-40.313
	c-21.15,18.886-41.986,35.631-62.71,53.395c-20.696,17.608-40.923,35.856-60.416,55.155
	c-38.75,38.701-75.922,80.778-105.327,129.744c-17.304,28.816-31.504,53.492-45.912,89.845
	c-12.039-35.431-20.678-72.104-25.466-108.811c-6.386-50.802-5.723-102.033,4.955-150.619
	c21.971-99.071,84.933-179.848,168.047-236.097c41.853-28.359,88.111-51.276,136.46-69.814c24.177-9.287,48.76-17.794,73.792-25.318
	c64.775-19.47,131.009-33.606,195.605-53.64c2.516-0.78,5.085-1.647,7.617-2.455c-1.406,0.448,6.697,73.337,7.065,79.808
	c3.577,62.962,2.039,125.728-4.082,188.47c-8.248,75.253-24.95,152.852-61.347,219.902
	c-25.773,47.474-64.568,87.577-111.043,115.087c-50.901,30.13-107.909,39.129-165.41,47.822
	c-13.441,2.036-27.111,3.884-41.154,6.335c12.814,6.237,26.132,10.968,39.756,14.794c101.178,28.413,211.326-3.869,284.117-78.969
	c21.07-21.459,39.161-45.479,54.087-70.923c71.449-122.004,84.422-270.279,81.997-408.834
	C969.582,246.855,969.558,245.352,969.523,243.849z M882.769,112.301l0.083,0.608l0.075,0.551c-0.063-0.303-0.118-0.608-0.15-0.915
	C882.77,112.481,882.722,111.91,882.769,112.301z M906.988,127.779c-0.05,0.019-0.104,0.029-0.155,0.046
	C907.05,127.75,907.302,127.663,906.988,127.779z"/>
</svg>
